<svg height="1365.333" viewBox="0 0 1024 1024" width="1365.333" xmlns="http://www.w3.org/2000/svg" fill="#fff">
  <rect fill="rgb(201, 243, 29)" height="1024" width="1024" />
  <path
    d="M0 512v512h1024V0H0v512zm509-288.3v96.8l96.8-96.8 96.7-96.7H899v195.5L802.5 419 706 515.5l96.2.5 96.3.5.3 97.5.2 97.5-97.7 97.7-97.8 97.8H508l-.1-97.3v-97.2l-96.8 97.3-96.8 97.2-97.9-.2-97.9-.3-.3-97.5-.2-97.5 97.2-97.2 97.3-97.3H118V321.5l97.2-97.2 97.3-97.3H509v96.7z" />
  <path
    d="M411.7 419.5 315.8 516l96.1.2 96.1.3v-96.8c0-53.2-.1-96.7-.2-96.7-.2.1-43.4 43.5-96.1 96.5zM509 613.7v96.8l96.5-96.5c53.1-53.1 96.5-96.6 96.5-96.7 0-.2-43.4-.3-96.5-.3H509v96.7z" />
  <text>xLeap</text>
</svg>
